<svg width="369" height="134" viewBox="0 0 369 134" fill="none" xmlns="http://www.w3.org/2000/svg">
<path d="M143 48.8C153.5 48.7 163.9 49.3 174.4 50.3C174.3 47.9 174.2 45.6 174.2 43.2C171.9 43.1 169.7 42.9 167.5 42.8C164.7 42.7 161.8 42.6 159 42.6C154.1 42.5 149.3 42.4 144.5 43.3C139.7 44.2 136.5 46.9 135.5 51.8C134.2 57.9 134.2 63.9 135.6 70C136.5 74.1 139.1 76.7 143.1 77.8C145.1 78.3 147.1 78.7 149.1 78.7C155.8 78.8 162.4 78.6 169.1 78.5C170.9 78.5 172.7 78.3 174.6 78.2C174.7 75.9 174.8 73.5 174.8 71.1C164.2 72.2 153.7 72.6 143.1 72.6C143 64.6 143 56.7 143 48.8Z" fill="white"/>
<path d="M212.4 43.3C212.2 43.3 211.9 43.5 211.7 43.7C208.7 47.6 205.7 51.5 202.7 55.5C201.7 56.9 200.6 58.2 199.5 59.6C199.3 59.4 199.2 59.2 199 59.1C195.1 54 191.2 48.9 187.2 43.8C186.9 43.4 186.6 43.2 186 43.2C183.3 43.2 180.6 43.2 177.8 43.2C177.6 43.2 177.3 43.2 176.9 43.2C177.1 43.5 177.2 43.7 177.4 43.9C183.1 51.1 188.9 58.3 194.6 65.5C194.9 65.8 195 66.3 195 66.8C195 70.3 195 73.7 195 77.2C195 77.5 195 77.8 195 78.1C197.6 78.1 200.1 78.1 202.7 78.1C202.7 77.8 202.7 77.5 202.7 77.2C202.7 73.8 202.7 70.4 202.7 66.9C202.7 66.3 202.9 65.8 203.3 65.3C208.8 58.5 214.3 51.6 219.7 44.8C220.1 44.3 220.4 43.9 220.9 43.2C218.1 43.3 215.3 43.3 212.4 43.3Z" fill="white"/>
<path d="M269.1 72.6C269.8 70.9 269.9 69 269.7 67.2C269.5 64.9 268.7 62.9 266.7 61.5C266 61.1 265.3 60.8 264.5 60.4C267.3 59 268.6 56.7 268.7 53.7C269 48.9 267.4 45.3 262.2 44.1C260.4 43.7 258.6 43.4 256.8 43.3C247.1 43.2 237.4 43.3 227.7 43.3C227.5 43.3 227.2 43.3 227 43.3C227 54.9 227 66.5 227 78.1C227.2 78.1 227.3 78.1 227.5 78.1C237.4 78.1 247.3 78.1 257.1 78.1C259.1 78.1 261.2 77.8 263.1 77.3C266 76.8 268.1 75.3 269.1 72.6ZM234.8 49.8C243.4 49.8 251.9 49.8 260.5 49.8C260.5 52.3 260.5 54.8 260.5 57.4C251.9 57.4 243.4 57.4 234.8 57.4C234.8 54.8 234.8 52.3 234.8 49.8ZM261.5 71.8C252.6 71.8 243.7 71.8 234.8 71.8C234.8 69.2 234.8 66.6 234.8 63.9C243.7 63.9 252.5 63.9 261.5 63.9C261.5 66.6 261.5 69.2 261.5 71.8Z" fill="white"/>
<path d="M355.7 65.4C357.4 65.2 359 65.1 360.5 64.8C364.3 64 367 62 367.9 58C368.4 56 368.4 54 368.1 52C367.6 48.4 366 45.8 362.5 44.5C360.6 43.8 358.6 43.4 356.5 43.4C347 43.4 337.5 43.4 327.9 43.4C327.7 43.4 327.5 43.4 327.3 43.4C327.3 55.1 327.3 66.7 327.3 78.3C329.9 78.3 332.4 78.3 335 78.3C335 74 335 69.7 335 65.4C335.3 65.4 335.6 65.4 335.8 65.4C338.5 65.4 341.3 65.4 344 65.4C344.5 65.4 344.9 65.5 345.3 65.9C349.4 69.9 353.5 73.9 357.7 77.9C357.9 78.1 358.4 78.3 358.7 78.3C361.8 78.3 364.9 78.3 368 78.3C368.2 78.3 368.4 78.3 368.8 78.2C364.4 73.8 360 69.6 355.7 65.4ZM335.1 58.8C335.1 55.8 335.1 52.8 335.1 49.8C343.4 49.8 351.7 49.8 360 49.8C360 52.8 360 55.8 360 58.8C351.7 58.8 343.5 58.8 335.1 58.8Z" fill="white"/>
<path d="M317.6 49.9C317.6 47.7 317.6 45.5 317.6 43.4C304.8 43.4 292.1 43.4 279.3 43.4C279.3 55 279.3 66.6 279.3 78.2C292.2 78.2 305.1 78.2 318 78.2C318 76 318 73.8 318 71.5C307.6 71.5 297.3 71.5 287 71.5C287 68.9 287 66.4 287 63.8C294.6 63.8 302.1 63.8 309.5 63.8C309.5 61.6 309.5 59.5 309.5 57.4C301.9 57.4 294.5 57.4 287 57.4C287 54.9 287 52.4 287 49.9C297.3 49.9 307.4 49.9 317.6 49.9Z" fill="white"/>
<path d="M339.8 104.7C339.7 104.7 339.7 104.6 339.5 104.6C339.7 104.5 339.8 104.4 339.9 104.3C340.8 103.8 341.4 103 341.6 102C341.7 101.3 341.8 100.6 341.8 99.9C341.7 98 340.9 96.6 339.1 95.9C337.9 95.4 336.7 95.2 335.5 95.2C330.1 95.2 324.8 95.2 319.4 95.2C319.3 95.2 319.2 95.2 319 95.2C319 101.6 319 107.9 319 114.3C319.1 114.3 319.2 114.3 319.2 114.3C324.6 114.3 330.1 114.3 335.5 114.3C336.6 114.3 337.7 114.1 338.8 113.9C340.3 113.5 341.5 112.7 342.1 111.1C342.4 110.2 342.4 109.2 342.4 108.3C342.3 106.6 341.5 105.3 339.8 104.7ZM323.3 98.7C328 98.7 332.7 98.7 337.4 98.7C337.4 100.1 337.4 101.4 337.4 102.8C332.7 102.8 328 102.8 323.3 102.8C323.3 101.5 323.3 100.1 323.3 98.7ZM337.9 110.8C333 110.8 328.2 110.8 323.3 110.8C323.3 109.3 323.3 107.9 323.3 106.5C328.2 106.5 333 106.5 337.9 106.5C337.9 107.9 337.9 109.3 337.9 110.8Z" fill="url(#paint0_linear_1_22)"/>
<path d="M286 95.2C284.6 95.2 283.2 95.2 281.8 95.2C281.8 100.3 281.8 105.3 281.8 110.4C276.9 111 272 111 267.1 110.4C267.1 105.3 267.1 100.2 267.1 95.2C265.7 95.2 264.3 95.2 262.9 95.2C262.9 95.4 262.9 95.6 262.9 95.7C262.9 98.9 262.9 102.2 262.9 105.4C262.9 106.6 263 107.7 263.1 108.9C263.4 111.1 264.5 112.8 266.7 113.7C267.3 113.9 268 114.1 268.7 114.2C271.1 114.7 273.6 114.7 276.1 114.6C277.8 114.5 279.6 114.4 281.3 113.9C283.4 113.3 284.9 112.1 285.5 109.9C285.8 108.9 285.9 107.8 286 106.8C286.1 103 286 99.3 286 95.5C286 95.5 286 95.3 286 95.2Z" fill="url(#paint1_linear_1_22)"/>
<path d="M165.7 98.2C171.4 98.1 177.1 98.5 182.9 99C182.9 97.7 182.8 96.4 182.8 95.1C181.5 95 180.3 94.9 179.1 94.9C177.6 94.8 176 94.8 174.5 94.8C171.8 94.7 169.2 94.7 166.6 95.2C164 95.7 162.2 97.2 161.7 99.8C161 103.1 161 106.4 161.7 109.7C162.2 111.9 163.6 113.4 165.8 114C166.9 114.3 168 114.5 169.1 114.5C172.7 114.5 176.4 114.5 180 114.4C181 114.4 182 114.3 183 114.2C183 112.9 183.1 111.7 183.1 110.3C177.3 110.9 171.5 111.1 165.8 111.1C165.7 106.9 165.7 102.5 165.7 98.2Z" fill="url(#paint2_linear_1_22)"/>
<path d="M218.8 95.2C217.4 95.2 216 95.2 214.6 95.2C214.6 101.6 214.6 107.9 214.6 114.3C220.8 114.3 227.1 114.3 233.3 114.3C233.3 113.1 233.3 111.9 233.3 110.6C228.4 110.6 223.6 110.6 218.8 110.6C218.8 105.5 218.8 100.3 218.8 95.2Z" fill="url(#paint3_linear_1_22)"/>
<path d="M56.5 0.799988V16.3H65.8V22C86.9 26.3 102.7 45 102.7 67.3C102.7 89.6 86.9 108.3 65.8 112.6V118.3H56.5V133.8C93.2 133.8 123 104 123 67.3C123 30.6 93.2 0.799988 56.5 0.799988Z" fill="url(#paint4_radial_1_22)"/>
<path d="M85.2 77C85.3 76.9 85.3 76.7 85.3 76.5C85.3 76.4 85.3 76.4 85.4 76.3C85.4 76.2 85.5 76 85.5 75.9C85.5 75.8 85.6 75.7 85.6 75.6C85.6 75.5 85.7 75.3 85.7 75.2C85.7 75.1 85.8 75 85.8 74.9C85.8 74.8 85.9 74.6 85.9 74.5C85.9 74.4 85.9 74.3 86 74.2C86 74.1 86.1 73.9 86.1 73.8C86.1 73.7 86.1 73.6 86.2 73.5C86.2 73.4 86.3 73.3 86.3 73.1C86.3 73 86.3 72.9 86.4 72.7C86.4 72.5 86.5 72.3 86.5 72.1C86.5 72 86.5 71.8 86.6 71.7C86.6 71.6 86.6 71.5 86.6 71.4C86.6 71.3 86.6 71.2 86.7 71C86.7 70.9 86.7 70.8 86.7 70.7C86.7 70.6 86.7 70.4 86.7 70.3C86.7 70.2 86.7 70.1 86.7 70C86.7 69.9 86.7 69.7 86.7 69.6C86.7 69.5 86.7 69.4 86.7 69.3C86.7 69.2 86.7 69 86.7 68.9C86.7 68.8 86.7 68.7 86.7 68.6C86.7 68.5 86.7 68.3 86.7 68.2C86.7 68.1 86.7 68 86.7 67.9C86.7 67.7 86.7 67.5 86.7 67.3C86.7 67.2 86.7 67.2 86.7 67.1V67C86.7 66.8 86.7 66.6 86.7 66.4C86.7 66.3 86.7 66.2 86.7 66.1C86.7 66 86.7 65.8 86.7 65.7C86.7 65.6 86.7 65.5 86.7 65.4C86.7 65.3 86.7 65.1 86.7 65C86.7 64.9 86.7 64.8 86.7 64.7C86.7 64.6 86.7 64.4 86.7 64.3C86.7 64.2 86.7 64.1 86.7 64C86.7 63.9 86.7 63.7 86.7 63.6C86.7 63.5 86.7 63.4 86.7 63.3C86.7 63.2 86.7 63 86.6 62.9C86.6 62.8 86.6 62.7 86.6 62.6C86.6 62.5 86.6 62.3 86.5 62.2C86.5 62 86.4 61.8 86.4 61.7C86.4 61.6 86.3 61.4 86.3 61.3C86.3 61.2 86.2 61.1 86.2 60.9C86.2 60.8 86.2 60.7 86.1 60.6C86.1 60.5 86 60.4 86 60.2C86 60.1 86 60 85.9 59.9C85.9 59.8 85.8 59.6 85.8 59.5C85.8 59.4 85.7 59.3 85.7 59.2C85.7 59.1 85.6 58.9 85.6 58.8C85.6 58.7 85.5 58.6 85.5 58.5C85.5 58.4 85.4 58.2 85.4 58.1C85.4 58 85.4 57.9 85.3 57.9C85.3 57.8 85.2 57.6 85.2 57.5V57.4C85 56.8 84.8 56.3 84.6 55.7V55.6C84.5 55.4 84.5 55.3 84.4 55.1C84.4 55.1 84.4 55 84.3 55C84.2 54.8 84.2 54.7 84.1 54.5C84.1 54.5 84.1 54.4 84 54.4C83.9 54.2 83.8 54.1 83.8 53.9V53.8C83.7 53.6 83.6 53.5 83.5 53.3C79.3 45.3 71.7 39.4 62.6 37.6C60.7 37.2 58.6 37 56.6 37V97.6C58.7 97.6 60.7 97.4 62.6 97C71.9 95.1 79.6 89 83.7 80.8C83.7 80.8 83.7 80.8 83.7 80.7C83.8 80.5 83.9 80.4 83.9 80.2C83.9 80.2 83.9 80.1 84 80.1C84.1 79.9 84.2 79.8 84.2 79.6V79.5C84.3 79.3 84.3 79.2 84.4 79C84.4 79 84.4 79 84.4 78.9C84.8 78.3 85 77.7 85.2 77C85.2 77.1 85.2 77.1 85.2 77Z" fill="url(#paint5_radial_1_22)"/>
<path d="M0 67.2C0 87.9 14.1 105.8 34.2 110.6L35 110.8V117.7H43.6V99.9C26 99.3 11.9 84.8 11.9 67.1C11.9 49.4 26 34.9 43.6 34.3V16.5H35V23.4L34.2 23.6C14.1 28.6 0 46.5 0 67.2Z" fill="white"/>
<defs>
<linearGradient id="paint0_linear_1_22" x1="203.635" y1="153.239" x2="300.362" y2="56.5117" gradientUnits="userSpaceOnUse">
<stop stop-color="#7DD61E"/>
<stop offset="0.2335" stop-color="#93E11F"/>
<stop offset="0.7414" stop-color="#BEF721"/>
<stop offset="1" stop-color="#CFFF22"/>
</linearGradient>
<linearGradient id="paint1_linear_1_22" x1="203.635" y1="153.239" x2="300.362" y2="56.5119" gradientUnits="userSpaceOnUse">
<stop stop-color="#7DD61E"/>
<stop offset="0.2335" stop-color="#93E11F"/>
<stop offset="0.7414" stop-color="#BEF721"/>
<stop offset="1" stop-color="#CFFF22"/>
</linearGradient>
<linearGradient id="paint2_linear_1_22" x1="203.635" y1="153.239" x2="300.362" y2="56.5119" gradientUnits="userSpaceOnUse">
<stop stop-color="#7DD61E"/>
<stop offset="0.2335" stop-color="#93E11F"/>
<stop offset="0.7414" stop-color="#BEF721"/>
<stop offset="1" stop-color="#CFFF22"/>
</linearGradient>
<linearGradient id="paint3_linear_1_22" x1="203.635" y1="153.239" x2="300.362" y2="56.5119" gradientUnits="userSpaceOnUse">
<stop stop-color="#7DD61E"/>
<stop offset="0.2335" stop-color="#93E11F"/>
<stop offset="0.7414" stop-color="#BEF721"/>
<stop offset="1" stop-color="#CFFF22"/>
</linearGradient>
<radialGradient id="paint4_radial_1_22" cx="0" cy="0" r="1" gradientUnits="userSpaceOnUse" gradientTransform="translate(56.5387 67.2284) scale(72.2812)">
<stop stop-color="#89F83E"/>
<stop offset="0.00629764" stop-color="#8AF83D"/>
<stop offset="0.4127" stop-color="#BAFD1E"/>
<stop offset="0.615" stop-color="#CCFF12"/>
<stop offset="0.6993" stop-color="#A3FB2C" stop-opacity="0.7201"/>
<stop offset="0.7948" stop-color="#7AF746" stop-opacity="0.4034"/>
<stop offset="0.8706" stop-color="#61F556" stop-opacity="0.1523"/>
<stop offset="0.9165" stop-color="#58F45C" stop-opacity="0"/>
</radialGradient>
<radialGradient id="paint5_radial_1_22" cx="0" cy="0" r="1" gradientUnits="userSpaceOnUse" gradientTransform="translate(14.0929 67.6443) scale(109.809 140.128)">
<stop offset="0.3258" stop-color="#8AE72D"/>
<stop offset="0.4701" stop-color="#A0EF24"/>
<stop offset="0.6661" stop-color="#B8F81A"/>
<stop offset="0.8478" stop-color="#C7FD14"/>
<stop offset="1" stop-color="#CCFF12"/>
</radialGradient>
</defs>
</svg>
